<?xml version="1.0" encoding="utf-8"?>
<!-- Generator: Adobe Illustrator 23.0.0, SVG Export Plug-In . SVG Version: 6.00 Build 0)  -->
<svg version="1.1" id="Layer_1" xmlns="http://www.w3.org/2000/svg" xmlns:xlink="http://www.w3.org/1999/xlink" x="0px" y="0px"
	 viewBox="0 0 415.9 72.9" style="enable-background:new 0 0 415.9 72.9;" xml:space="preserve">
<style type="text/css">
	.st0{display:none;fill:#0B36A8;}
	.st1{display:none;fill:#FFFFFF;}
	.st2{display:none;}
	.st3{display:inline;fill:#FFFFFF;}
	.st4{fill:#8252F0;}
	.st5{fill:#FFFFFF;}
	.st6{font-family:'MuseoSansCyrl-900';}
	.st7{font-size:38px;}
</style>
<title>logo</title>
<ellipse class="st0" cx="19" cy="19" rx="19" ry="19"/>
<path class="st1" d="M11.9,15.2c0-0.2-0.1-0.4-0.1-0.6c0,0.1,0,0,0-0.2s0.1-0.6,0.1-1.2c0.1-0.1,0.1-0.2,0.2-0.3
	c0-0.1,0.1-0.2,0.1-0.2c-0.1-0.1-0.1-0.2-0.2-0.3c0-0.1-0.1-0.1-0.1-0.2c0.1-0.6,0.2-1.2,0.2-1.7c0-0.2,0.1-0.4,0.3-0.5
	c0.2-0.2,0.4-0.4,0.7-0.6c0.2-0.2,0.4-0.3,0.7-0.5c0.2-0.1,0.4-0.2,0.6-0.3c0.2,0,0.3-0.1,0.5-0.2c0-0.1,0.1-0.1,0.2-0.1
	c0.2,0,0.3,0.1,0.4,0.2c0.1,0.2,0.1,0.5,0.1,0.7c0,0.2-0.1,0.5-0.1,0.7c-0.1,0.2-0.1,0.4-0.1,0.7c0,0.1,0,0.3,0,0.7s0,1,0.1,1.7
	c0,0.6,0.1,1.2,0.2,1.7c0.2,0.6,0.3,1.3,0.6,1.9c0.2,0.7,0.6,1.3,1,1.9c0.3,0.4,0.7,0.6,1.2,0.6c0.5-0.1,1-0.3,1.4-0.7
	c0.7-0.6,1.4-1.3,2-2c0.6-0.7,1.1-1.3,1.6-1.9c0.4-0.5,0.8-1.1,1.1-1.6c0.3-0.4,0.6-0.8,0.9-1.2c0.4-0.4,0.8-0.7,1.2-1l0.3-0.2
	c0.1,0,0.1-0.1,0.2-0.1c0.2,0,0.4,0.2,0.4,0.4c0.1,0.4,0.2,0.8,0.1,1.2c-0.1,0.5-0.1,1-0.1,1.5c-0.1,0.8-0.2,1.5-0.4,2.3
	c-0.2,0.8-0.4,1.7-0.7,2.5c-0.1,0.4-0.3,0.8-0.4,1.2c-0.1,0.3-0.2,0.6-0.2,0.8c0,0.1,0,0.3-0.1,0.5s-0.1,0.4-0.1,0.7
	c-0.1,0.3-0.2,0.5-0.3,0.8c-0.1,0.2-0.2,0.5-0.2,0.7c-0.1,0.3-0.1,0.6-0.2,1c0,0.1,0,0.2,0,0.3s0,0.2,0,0.3c-0.2,1-0.5,2-0.7,3
	c0,0.1-0.1,0.2-0.1,0.3c-0.2,0.1-0.3,0.1-0.4,0.3c-0.2,0.2-0.4,0.3-0.5,0.5c-0.1,0.2-0.3,0.3-0.5,0.4c-0.1,0.1-0.2,0.1-0.3,0.1
	c-0.1,0-0.1,0-0.2-0.1C22,29.2,22,29.1,22,29.1c0-0.1,0-0.1,0-0.2c0.2-0.5,0.3-1,0.4-1.5c0.1-0.6,0.2-1.4,0.3-2.4
	c0-0.2,0.1-0.7,0.2-1.6c0.1-0.9,0.4-2.1,0.7-3.7c0-0.3,0.1-0.6,0.2-0.9c0.1-0.4,0.1-0.8,0.2-1.3c0.1-0.2,0.1-0.4,0.2-0.6
	c0-0.1,0.1-0.3,0.1-0.4c0-0.1,0-0.2-0.1-0.2c0,0-0.1-0.1-0.2-0.1c-0.1,0-0.2,0.1-0.3,0.2c-0.2,0.2-0.4,0.5-0.6,0.7
	c-0.1,0.2-0.3,0.4-0.4,0.5s-0.3,0.4-0.5,0.6c-0.3,0.3-0.5,0.5-0.8,0.8l-1.1,1.1L20,20.4c-0.1,0.1-0.3,0.2-0.5,0.3
	c-0.2,0.3-0.5,0.6-0.9,0.8c-0.4,0.2-0.7,0.3-1.2,0.3c-0.4,0-0.9-0.1-1.2-0.4c-0.4-0.3-0.8-0.7-1.1-1.2c-0.2-0.3-0.3-0.5-0.5-0.8
	c-0.2-0.3-0.3-0.5-0.5-0.8l-0.1,0c-0.1,0.4-0.2,0.8-0.3,1.2c-0.1,0.8-0.3,1.9-0.5,3.3c-0.2,1.5-0.4,2.7-0.5,3.5
	c-0.1,0.5-0.1,1.1-0.2,1.7c0,0.3-0.1,0.5-0.2,0.8c-0.1,0.2-0.3,0.3-0.5,0.3c-0.2,0-0.3,0-0.5,0.1c-0.2,0-0.4,0.1-0.7,0.2
	c0,0-0.1,0-0.1-0.1c0,0-0.1-0.1-0.1-0.1l0.1-0.6l-0.1-0.6c0.1-0.3,0.1-0.6,0.2-0.9c0-0.6,0.1-1.2,0.1-1.7c0-0.2,0.1-0.4,0.1-0.6
	c0.1-0.2,0.1-0.4,0.1-0.6c0-0.1,0-0.2,0-0.3c0-0.1,0-0.2,0-0.3c0-0.8,0.1-1.6,0.3-2.4c0.1-0.8,0.2-1.6,0.3-2.5
	c0-0.2-0.1-0.5-0.1-0.7c0.1-0.4,0.1-0.8,0.2-1.4C11.6,16.5,11.7,15.9,11.9,15.2z"/>
<g class="st2">
	<path class="st3" d="M72.6,8.2v21.9h-3.6V13.7l-6.3,16.4h-3.2l-6.4-16.4v16.4h-3.6V8.2h4.3l7.2,17.5l7.1-17.5H72.6z"/>
	<path class="st3" d="M87.9,13.7c1.1,0.8,1.9,1.8,2.4,3.1v-4h3.6v17.4h-3.6v-4c-0.4,1.3-1.3,2.3-2.4,3.1c-1.2,0.8-2.6,1.2-4,1.2
		c-1.4,0-2.8-0.3-4.1-1.1c-1.2-0.7-2.2-1.8-2.8-3.1c-0.7-1.5-1-3.1-1-4.8c0-1.6,0.3-3.3,1-4.7c0.6-1.3,1.6-2.4,2.8-3.1
		c1.2-0.7,2.6-1.1,4-1.1C85.3,12.4,86.7,12.9,87.9,13.7z M81.1,17.2c-1,1.2-1.5,2.7-1.4,4.2c-0.1,1.5,0.4,3,1.4,4.2
		c1,1,2.4,1.6,3.8,1.5c1,0,1.9-0.2,2.7-0.7c0.8-0.5,1.5-1.2,1.9-2c0.5-0.9,0.7-2,0.7-3c0-1-0.2-2.1-0.7-3c-0.4-0.8-1.1-1.5-1.9-2
		c-0.8-0.5-1.8-0.7-2.7-0.7C83.5,15.6,82.1,16.1,81.1,17.2z"/>
	<path class="st3" d="M104.3,13.4c1.1-0.7,2.5-1,3.8-1v3.9H107c-1.4-0.1-2.7,0.3-3.8,1.2c-1,1-1.6,2.4-1.4,3.8v8.8h-3.6V12.7h3.6
		v3.4C102.3,15,103.2,14.1,104.3,13.4z"/>
	<path class="st3" d="M120.6,30.1l-6.2-7.7v7.7h-3.6V6.8h3.6v13.4l6.2-7.4h4.3l-7.6,8.6l7.8,8.7H120.6z"/>
</g>
<g>
	<path class="st4" d="M50.1,4.6v49.5h-8.7V18.3L25.6,41.9h-0.3l-4.5-6.7l4.7-7.3l0,0l12-18.7l3.2-5h7.8C49.1,4.3,49.6,4.5,50.1,4.6z
		"/>
	<path class="st4" d="M73.9,36.9c0,4.6-0.9,9-2.7,13.2c-1.7,4-4.1,7.6-7.2,10.7c-3.1,3.1-6.7,5.5-10.7,7.2
		c-4.2,1.8-8.6,2.7-13.2,2.7s-9-0.9-13.2-2.7c-4-1.7-7.6-4.1-10.7-7.2c-2.6-2.6-4.8-5.7-6.4-9c-0.3-0.6-0.6-1.2-0.8-1.8
		c-1.8-4.2-2.7-8.6-2.7-13.2c0-4.6,0.9-9,2.7-13.2c0.3-0.6,0.5-1.2,0.8-1.8c0.3-0.7,0.7-1.3,1-1.9c1.5-2.5,3.2-4.9,5.3-7l3.3,5.2
		l4.4,6.8l-5.2,6.7l-4.1-6.1c-1.5,3.4-2.4,7.2-2.4,11.2c0,15.4,12.5,27.9,27.9,27.9s27.9-12.5,27.9-27.9c0-10.7-6.1-20-14.9-24.7
		V5.7c0.1,0,0.2,0.1,0.2,0.1c4,1.7,7.6,4.1,10.7,7.2c3.1,3.1,5.5,6.7,7.2,10.7C73,27.9,73.9,32.4,73.9,36.9z"/>
</g>
<text transform="matrix(1 0 0 1 88.8574 53.1143)" class="st5 st6 st7">Mayowa Olaleye</text>
</svg>
